<svg version="1.1" id="Layer_1" xmlns="http://www.w3.org/2000/svg" xmlns:xlink="http://www.w3.org/1999/xlink" x="0px" y="0px"
	 width="109.421px" height="47.812px" viewBox="0 0 109.421 47.812" style="enable-background:new 0 0 109.421 47.812;"
	 xml:space="preserve" fill="currentColor">
<g>
	<path d="M5.693,47.222v-1.276c-0.965,1.139-1.657,1.518-2.83,1.518c-0.794,0-1.449-0.275-1.932-0.792
		C0.24,45.912,0,44.945,0,42.736c0-3.867,0.275-4.316,3.727-6.213c1.554-0.863,1.967-1.38,1.967-2.521
		c0-1.034-0.482-1.621-1.276-1.621c-0.933,0-1.312,0.621-1.312,2.279v0.826H0c0.034-2.38,0.207-3.347,0.794-4.243
		c0.69-1.104,1.897-1.625,3.657-1.625c2.036,0,3.417,0.624,4.003,1.796c0.345,0.691,0.449,1.52,0.449,3.313v12.494H5.693z
		 M5.693,38.49c-1.898,0.829-2.484,1.726-2.484,3.83c0,1.83,0.242,2.383,1,2.383c0.552,0,1.036-0.415,1.313-1.106
		c0.138-0.377,0.171-0.759,0.171-1.827V38.49z"/>
	<path d="M11.774,47.222V29.86h3.209v1.279c0.931-1.104,1.725-1.521,2.934-1.521c1.242,0,2.14,0.624,2.519,1.762
		c0.207,0.587,0.275,1.242,0.275,3.071v12.77h-3.209V35.936c0-1.692,0-2.175-0.069-2.518c-0.138-0.657-0.519-1.037-1-1.037
		c-0.587,0-1.07,0.483-1.277,1.312c-0.138,0.45-0.173,1.175-0.173,2.451v11.078H11.774z"/>
	<path d="M26.76,27.964h-3.209v-3.762h3.209V27.964z M26.76,47.222h-3.209V29.86h3.209V47.222z"/>
</g>
<g>
	<path d="M96.268,13.874v3.521c0,1.553,0.278,2.036,1.242,2.036c0.967,0,1.245-0.483,1.245-2.036v-1.898h3.209
		c0,2.519-0.104,3.451-0.518,4.349c-0.621,1.518-2.037,2.346-3.971,2.346c-1.933,0-3.31-0.793-3.9-2.346
		c-0.413-1.002-0.517-2.14-0.517-6.351c0-4.935,0.07-5.763,0.517-6.833c0.624-1.519,1.968-2.313,3.9-2.313
		c2.176,0,3.729,1.071,4.176,2.865c0.313,1.379,0.313,1.379,0.313,6.66H96.268z M98.755,9.112c0-1.554-0.278-2.002-1.245-2.002
		c-0.964,0-1.242,0.483-1.242,2.002v2.243h2.487V9.112z"/>
	<path d="M108.25,4.59h1.175v2.865h-1.175v9.731c0,1.691,0.104,1.898,1.034,1.898h0.141v2.865h-2.521
		c-1.45,0-1.863-0.552-1.863-2.451V7.456h-1.175V4.59h1.175V0h3.209V4.59z"/>
</g>
<path d="M29.794,47.222V4.706h7.86v3.382c2.536-2.959,4.395-3.974,7.522-3.974c3.296,0,5.156,1.183,6.17,3.974
	c2.536-3.043,4.396-3.974,7.606-3.974c3.212,0,5.41,1.353,6.171,3.889c0.424,1.267,0.592,2.873,0.592,5.915v33.303h-7.861V18.822
	v-1.353v-2.452c0-2.705-0.845-4.141-2.534-4.141c-1.099,0-2.198,0.845-2.705,2.113c-0.762,1.606-0.93,3.381-0.93,8.367v25.865
	h-7.861V18.822v-1.353v-2.452c0-2.705-0.845-4.141-2.535-4.141c-1.099,0-2.197,0.845-2.705,2.113
	c-0.762,1.606-0.93,3.381-0.93,8.367v25.865H29.794z"/>
<path d="M82.897,36.065c0,3.802-0.677,4.985-3.043,4.985s-3.044-1.184-3.044-4.985v-8.622h13.947c0-12.932,0-12.932-0.762-16.314
	C88.9,6.734,85.095,4.114,79.771,4.114c-4.735,0-8.029,1.944-9.552,5.664c-1.099,2.621-1.268,4.648-1.268,16.736
	c0,10.31,0.253,13.101,1.268,15.551c1.438,3.806,4.816,5.747,9.552,5.747c4.734,0,8.196-2.029,9.72-5.747
	c1.015-2.197,1.268-4.479,1.268-10.647h-7.86V36.065z M76.811,15.779c0-3.719,0.678-4.902,3.044-4.902s3.043,1.099,3.043,4.902
	v5.494h-6.087V15.779z"/>
</svg>
